<svg width="32" height="32" viewBox="0 0 32 32" fill="none" xmlns="http://www.w3.org/2000/svg">
<path d="M26.644 23.788C26.4364 23.9964 26.2773 24.248 26.1781 24.5249C26.0789 24.8018 26.042 25.0972 26.07 25.39C26.2106 26.7452 26.477 28.0843 26.866 29.39C24.076 28.744 22.372 27.996 21.598 27.604C21.159 27.3816 20.6534 27.329 20.178 27.456C18.8151 27.8193 17.4105 28.0022 16 28C8.008 28 2 22.386 2 16C2 9.616 8.008 4 16 4C23.992 4 30 9.616 30 16C30 18.936 28.766 21.66 26.644 23.788ZM27.63 31.598C28.1039 31.6919 28.5793 31.778 29.056 31.856C29.456 31.92 29.76 31.504 29.602 31.132C29.4244 30.7132 29.2616 30.2883 29.114 29.858L29.108 29.838C28.612 28.398 28.208 26.742 28.06 25.2C30.514 22.74 32 19.52 32 16C32 8.268 24.836 2 16 2C7.164 2 0 8.268 0 16C0 23.732 7.164 30 16 30C17.5847 30.0021 19.1628 29.7964 20.694 29.388C21.734 29.914 23.972 30.872 27.63 31.598Z" fill="black"/>
<path d="M14.132 13.52C13.7424 12.9133 13.1664 12.4494 12.4906 12.1981C11.8148 11.9468 11.0757 11.9216 10.3844 12.1263C9.69304 12.3311 9.08683 12.7547 8.65686 13.3335C8.22689 13.9122 7.99639 14.615 8.00001 15.336C8.00037 15.933 8.16106 16.519 8.4653 17.0328C8.76953 17.5465 9.20615 17.9692 9.72953 18.2565C10.2529 18.5438 10.8439 18.6853 11.4406 18.6663C12.0374 18.6472 12.6181 18.4682 13.122 18.148C12.86 18.926 12.372 19.756 11.568 20.588C11.4142 20.7471 11.3299 20.9608 11.3336 21.1821C11.3355 21.2917 11.3589 21.3998 11.4026 21.5003C11.4462 21.6009 11.5092 21.6918 11.588 21.768C11.6668 21.8441 11.7598 21.904 11.8618 21.9442C11.9637 21.9845 12.0726 22.0042 12.1822 22.0023C12.4034 21.9986 12.6142 21.9071 12.768 21.748C15.74 18.668 15.354 15.32 14.132 13.524V13.52ZM22.132 13.52C21.7424 12.9133 21.1664 12.4494 20.4906 12.1981C19.8148 11.9468 19.0757 11.9216 18.3844 12.1263C17.693 12.3311 17.0868 12.7547 16.6569 13.3335C16.2269 13.9122 15.9964 14.615 16 15.336C16.0004 15.933 16.1611 16.519 16.4653 17.0328C16.7695 17.5465 17.2061 17.9692 17.7295 18.2565C18.2529 18.5438 18.8439 18.6853 19.4406 18.6663C20.0374 18.6472 20.6181 18.4682 21.122 18.148C20.86 18.926 20.372 19.756 19.568 20.588C19.4918 20.6668 19.4319 20.7598 19.3917 20.8617C19.3515 20.9637 19.3318 21.0725 19.3336 21.1821C19.3355 21.2917 19.3589 21.3998 19.4026 21.5003C19.4462 21.6009 19.5092 21.6918 19.588 21.768C19.6668 21.8441 19.7598 21.904 19.8618 21.9442C19.9637 21.9845 20.0726 22.0042 20.1822 22.0023C20.2917 22.0005 20.3999 21.9771 20.5004 21.9334C20.6009 21.8898 20.6918 21.8268 20.768 21.748C23.74 18.668 23.354 15.32 22.132 13.524V13.52Z" fill="black"/>
</svg>
