<svg width="24" height="24" viewBox="0 0 24 24" fill="none" xmlns="http://www.w3.org/2000/svg">
<g clip-path="url(#clip0_0_1142)">
<path d="M13.4864 7.71598C12.5085 7.48874 11.4915 7.48874 10.5136 7.71598C9.9488 7.36958 9.5176 7.21038 9.204 7.14318C9.07015 7.11297 8.9332 7.09874 8.796 7.10078C8.73357 7.10247 8.67144 7.10997 8.6104 7.12318L8.6024 7.12478L8.5992 7.12638H8.5968L8.7064 7.51118L8.5968 7.12718C8.5406 7.14306 8.48855 7.17106 8.44433 7.2092C8.4001 7.24735 8.36476 7.29472 8.3408 7.34798C8.10478 7.87654 8.05981 8.47071 8.2136 9.02878C7.81531 9.51146 7.59826 10.1182 7.6 10.744C7.6 11.9864 7.9664 12.8216 8.5912 13.3584C9.0288 13.7344 9.56 13.9344 10.0928 14.0488C10.009 14.295 9.97735 14.556 10 14.8152V15.2936C9.6744 15.3616 9.4488 15.34 9.288 15.2872C9.0872 15.2208 8.9328 15.0872 8.7848 14.8952C8.70743 14.7917 8.63534 14.6843 8.5688 14.5736L8.5232 14.4992C8.46562 14.4034 8.40587 14.309 8.344 14.216C8.192 13.9912 7.9664 13.7096 7.6016 13.6136L7.2144 13.512L7.0112 14.2864L7.3984 14.388C7.4624 14.404 7.5456 14.464 7.6824 14.6648C7.73505 14.744 7.78574 14.8246 7.8344 14.9064L7.8888 14.9944C7.964 15.116 8.0504 15.2504 8.1504 15.3816C8.3528 15.6456 8.6288 15.912 9.0384 16.0472C9.3184 16.14 9.6368 16.1624 10 16.1064V17.6C10 17.7061 10.0421 17.8078 10.1172 17.8828C10.1922 17.9578 10.2939 18 10.4 18H13.6C13.7061 18 13.8078 17.9578 13.8828 17.8828C13.9579 17.8078 14 17.7061 14 17.6V14.7496C14 14.4976 13.9888 14.2664 13.9176 14.0512C14.448 13.9392 14.9752 13.7392 15.4104 13.3632C16.0344 12.8224 16.4 11.9792 16.4 10.7296V10.7288C16.398 10.1081 16.1809 9.50733 15.7856 9.02878C15.9392 8.47096 15.8942 7.87711 15.6584 7.34878C15.6346 7.29545 15.5994 7.24798 15.5554 7.2097C15.5113 7.17142 15.4593 7.14325 15.4032 7.12718L15.2936 7.51118C15.4032 7.12718 15.4024 7.12718 15.4016 7.12718L15.4 7.12638L15.3968 7.12478L15.3896 7.12318C15.3698 7.11804 15.3498 7.11403 15.3296 7.11118C15.2877 7.10506 15.2455 7.10159 15.2032 7.10078C15.066 7.09875 14.929 7.11298 14.7952 7.14318C14.4824 7.21038 14.0512 7.36958 13.4864 7.71598Z" fill="black"/>
</g>
<circle cx="12" cy="12" r="11.5" stroke="black"/>
<defs>
<clipPath id="clip0_0_1142">
<rect width="12" height="12" fill="white" transform="translate(6 6)"/>
</clipPath>
</defs>
</svg>
