<svg width="32" height="32" viewBox="0 0 32 32" fill="none" xmlns="http://www.w3.org/2000/svg">
<path d="M18.696 9.3333H20.0293C20.3828 9.33365 20.7218 9.47424 20.9717 9.72422C21.2217 9.97419 21.3623 10.3131 21.3626 10.6666V12C21.3626 12.3536 21.5031 12.6927 21.7532 12.9428C22.0032 13.1928 22.3424 13.3333 22.696 13.3333C23.0496 13.3333 23.3887 13.1928 23.6388 12.9428C23.8888 12.6927 24.0293 12.3536 24.0293 12V10.6666C24.0282 9.60609 23.6065 8.58929 22.8566 7.83938C22.1066 7.08946 21.0898 6.66769 20.0293 6.66663H18.696C18.3424 6.66663 18.0032 6.80711 17.7532 7.05716C17.5031 7.30721 17.3626 7.64635 17.3626 7.99997C17.3626 8.35359 17.5031 8.69273 17.7532 8.94278C18.0032 9.19282 18.3424 9.3333 18.696 9.3333ZM13.3626 21.3333H12.0293C11.6758 21.3329 11.3369 21.1924 11.0869 20.9424C10.8369 20.6924 10.6963 20.3535 10.696 20V18.6666C10.696 18.313 10.5555 17.9739 10.3054 17.7238C10.0554 17.4738 9.71626 17.3333 9.36264 17.3333C9.00902 17.3333 8.66988 17.4738 8.41983 17.7238C8.16978 17.9739 8.02931 18.313 8.02931 18.6666V20C8.03037 21.0605 8.45213 22.0773 9.20205 22.8272C9.95197 23.5771 10.9688 23.9989 12.0293 24H13.3626C13.7163 24 14.0554 23.8595 14.3054 23.6094C14.5555 23.3594 14.696 23.0203 14.696 22.6666C14.696 22.313 14.5555 21.9739 14.3054 21.7238C14.0554 21.4738 13.7163 21.3333 13.3626 21.3333ZM28.0293 20C28.3829 20 28.7221 19.8595 28.9721 19.6094C29.2222 19.3594 29.3626 19.0203 29.3626 18.6666C29.3626 18.313 29.2222 17.9739 28.9721 17.7238C28.7221 17.4738 28.3829 17.3333 28.0293 17.3333H24.0293V16.6666C24.0293 16.313 23.8888 15.9739 23.6388 15.7238C23.3887 15.4738 23.0496 15.3333 22.696 15.3333C22.3424 15.3333 22.0032 15.4738 21.7532 15.7238C21.5031 15.9739 21.3626 16.313 21.3626 16.6666V17.3333H17.3626C17.009 17.3333 16.6699 17.4738 16.4198 17.7238C16.1698 17.9739 16.0293 18.313 16.0293 18.6666C16.0293 19.0203 16.1698 19.3594 16.4198 19.6094C16.6699 19.8595 17.009 20 17.3626 20H24.2746C23.9733 21.2255 23.4167 22.3736 22.6413 23.3693C22.3235 22.9578 22.0424 22.5192 21.8013 22.0586C21.7246 21.8976 21.6164 21.7536 21.483 21.6351C21.3497 21.5167 21.1939 21.4262 21.0249 21.369C20.856 21.3118 20.6772 21.2891 20.4993 21.3023C20.3215 21.3154 20.148 21.3641 19.9893 21.4455C19.8305 21.5268 19.6898 21.6392 19.5752 21.776C19.4607 21.9128 19.3748 22.0711 19.3226 22.2417C19.2704 22.4122 19.2529 22.5915 19.2713 22.769C19.2896 22.9464 19.3433 23.1183 19.4293 23.2746C19.7888 23.9686 20.2176 24.6244 20.7093 25.232C19.7415 25.9346 18.641 26.4331 17.4746 26.6973C17.1292 26.7728 16.8278 26.9824 16.6369 27.2801C16.446 27.5778 16.3811 27.9391 16.4566 28.2846C16.5321 28.6301 16.7418 28.9315 17.0395 29.1224C17.3372 29.3133 17.6985 29.3781 18.044 29.3026C19.7169 28.9325 21.2862 28.1937 22.6373 27.14C23.9999 28.1945 25.5797 28.9332 27.2626 29.3026C27.6081 29.3787 27.9697 29.3143 28.2677 29.1238C28.5658 28.9333 28.7759 28.6321 28.852 28.2866C28.928 27.9411 28.8637 27.5796 28.6731 27.2815C28.4826 26.9835 28.1815 26.7733 27.836 26.6973C26.6624 26.4364 25.5533 25.9421 24.5746 25.244C25.8078 23.7266 26.6391 21.9232 26.992 20H28.0293ZM12.0693 14.9906C12.1573 15.3314 12.3764 15.6236 12.679 15.8035C12.9815 15.9834 13.3429 16.0363 13.6843 15.9508C14.0258 15.8652 14.3195 15.6482 14.5015 15.3469C14.6835 15.0457 14.7391 14.6847 14.656 14.3426L12.3133 4.9693C12.1489 4.31116 11.7692 3.72688 11.2345 3.30935C10.6999 2.89183 10.041 2.66504 9.36264 2.66504C8.68428 2.66504 8.02539 2.89183 7.49074 3.30935C6.95609 3.72688 6.57638 4.31116 6.41197 4.9693L4.06931 14.3426C3.98622 14.6847 4.04173 15.0457 4.22375 15.3469C4.40577 15.6482 4.69952 15.8652 5.04095 15.9508C5.38237 16.0363 5.74376 15.9834 6.04631 15.8035C6.34885 15.6236 6.56801 15.3314 6.65597 14.9906L7.40264 12H11.3226L12.0693 14.9906ZM8.06931 9.3333L8.99997 5.6173C9.02794 5.54376 9.0776 5.48046 9.14237 5.43579C9.20714 5.39112 9.28396 5.3672 9.36264 5.3672C9.44132 5.3672 9.51814 5.39112 9.58291 5.43579C9.64768 5.48046 9.69734 5.54376 9.72531 5.6173L10.6546 9.3333H8.06931Z" fill="#0066FF"/>
</svg>
